<svg xmlns="http://www.w3.org/2000/svg" version="1.1" xmlns:xlink="http://www.w3.org/1999/xlink" xmlns:svgjs="http://svgjs.dev/svgjs" width="2000" height="343" viewBox="0 0 2000 343"><g transform="matrix(1,0,0,1,-1.2121212121213603,-0.24535116263785994)"><svg viewBox="0 0 396 68" data-background-color="#ffffff" preserveAspectRatio="xMidYMid meet" height="343" width="2000" xmlns="http://www.w3.org/2000/svg" xmlns:xlink="http://www.w3.org/1999/xlink"><g id="tight-bounds" transform="matrix(1,0,0,1,0.24000000000003752,0.04864104682033599)"><svg viewBox="0 0 395.5199999999999 67.83766082259663" height="67.83766082259663" width="395.5199999999999"><g><svg viewBox="0 0 608.1510945709977 104.30710882483372" height="67.83766082259663" width="395.5199999999999"><g transform="matrix(1,0,0,1,0,14.415816053215082)"><svg viewBox="0 0 395.52 75.47547671840356" height="75.47547671840356" width="395.52"><g id="textblocktransform"><svg viewBox="0 0 395.52 75.47547671840356" height="75.47547671840356" width="395.52" id="textblock"><g><svg viewBox="0 0 395.52 75.47547671840356" height="75.47547671840356" width="395.52"><g transform="matrix(1,0,0,1,0,0)"><svg width="395.52" viewBox="1.75 -33.8 180.38 34.43" height="75.47547671840356" data-palette-color="#556970"><g class="wordmark-text-0" data-fill-palette-color="primary" id="text-0"><path d="M10.93 0.55L10.93 0.55Q7.98 0.55 5.78-0.09 3.58-0.73 2.13-1.48L2.13-1.48 1.75-5.23Q3.58-4.28 5.76-3.58 7.95-2.88 10.73-2.88L10.73-2.88Q13.55-2.88 14.98-3.78 16.4-4.67 16.4-6.45L16.4-6.45 16.4-6.73Q16.4-7.88 15.86-8.63 15.33-9.38 13.93-9.95 12.53-10.53 9.95-11.1L9.95-11.1Q6.88-11.78 5.1-12.69 3.33-13.6 2.56-14.95 1.8-16.3 1.8-18.25L1.8-18.25 1.8-18.48Q1.8-21.68 4.03-23.33 6.25-24.98 10.73-24.98L10.73-24.98Q13.6-24.98 15.71-24.33 17.82-23.68 19.18-22.88L19.18-22.88 19.55-19.45Q17.93-20.4 15.83-21.03 13.73-21.65 11.1-21.65L11.1-21.65Q9.2-21.65 8.03-21.26 6.85-20.88 6.33-20.16 5.8-19.45 5.8-18.45L5.8-18.45 5.8-18.25Q5.8-17.15 6.33-16.39 6.85-15.63 8.21-15.06 9.58-14.5 12-13.98L12-13.98Q15.13-13.35 16.96-12.48 18.8-11.6 19.6-10.26 20.4-8.93 20.4-6.83L20.4-6.83 20.4-6.4Q20.4-2.95 18-1.2 15.6 0.55 10.93 0.55ZM34.22 0.5L34.22 0.5Q31.4 0.5 29.67-0.35 27.95-1.2 27.17-2.93 26.4-4.65 26.4-7.23L26.4-7.23 26.4-22.63 30.4-22.63 30.4-7.7Q30.4-5.3 31.5-4.16 32.6-3.03 35.2-3.03L35.2-3.03Q36.67-3.03 38.03-3.35 39.4-3.68 40.6-4.28L40.6-4.28 40.22-0.8Q39.05-0.2 37.47 0.15 35.9 0.5 34.22 0.5ZM39.97-20.8L22.4-20.8 22.4-24.05 40.35-24.05 39.97-20.8ZM30.3-23.65L26.42-23.65 26.4-30.5 30.47-31.03 30.3-23.65ZM54.82 0.63L54.82 0.63Q49.57 0.63 46.86-2.21 44.15-5.05 44.15-10.38L44.15-10.38 44.15-14.1Q44.15-19.4 46.87-22.23 49.6-25.05 54.82-25.05L54.82-25.05Q60.07-25.05 62.78-22.23 65.5-19.4 65.5-14.1L65.5-14.1 65.5-10.38Q65.5-5.05 62.78-2.21 60.07 0.63 54.82 0.63ZM54.82-2.68L54.82-2.68Q58.07-2.68 59.76-4.6 61.45-6.53 61.45-10.15L61.45-10.15 61.45-14.33Q61.45-17.93 59.76-19.84 58.07-21.75 54.82-21.75L54.82-21.75Q51.6-21.75 49.9-19.84 48.2-17.93 48.2-14.33L48.2-14.33 48.2-10.15Q48.2-6.53 49.9-4.6 51.6-2.68 54.82-2.68ZM80.52 0.55L80.52 0.55Q75.27 0.55 72.71-2.29 70.14-5.13 70.14-10.33L70.14-10.33 70.14-14.13Q70.14-19.35 72.72-22.16 75.29-24.98 80.52-24.98L80.52-24.98Q82.07-24.98 83.34-24.69 84.62-24.4 85.63-23.94 86.64-23.48 87.34-22.98L87.34-22.98 87.69-19.45Q86.52-20.35 84.91-20.98 83.29-21.6 81.12-21.6L81.12-21.6Q77.62-21.6 75.91-19.66 74.19-17.73 74.19-14.03L74.19-14.03 74.19-10.43Q74.19-6.8 75.91-4.85 77.62-2.9 81.12-2.9L81.12-2.9Q83.37-2.9 85.01-3.53 86.64-4.15 87.92-5.05L87.92-5.05 87.54-1.48Q86.44-0.73 84.67-0.09 82.89 0.55 80.52 0.55ZM113.52 0L108.67 0 99.02-11.38 96.44-11.38 96.44-14.53 99.02-14.53 108.27-24.4 113.07-24.4 101.99-12.63 101.99-13.6 113.52 0ZM96.84 0L92.82 0 92.82-33.13 96.84-33.13 96.84 0ZM119.01 0.48L119.01 0.48Q117.71 0.48 117.1-0.24 116.49-0.95 116.49-2.25L116.49-2.25 116.49-2.5Q116.49-3.78 117.1-4.48 117.71-5.18 119.01-5.18L119.01-5.18Q120.29-5.18 120.91-4.48 121.54-3.78 121.54-2.5L121.54-2.5 121.54-2.25Q121.54-0.95 120.91-0.24 120.29 0.48 119.01 0.48ZM136.49 0.55L136.49 0.55Q131.24 0.55 128.67-2.29 126.11-5.13 126.11-10.33L126.11-10.33 126.11-14.13Q126.11-19.35 128.69-22.16 131.26-24.98 136.49-24.98L136.49-24.98Q138.04-24.98 139.31-24.69 140.59-24.4 141.6-23.94 142.61-23.48 143.31-22.98L143.31-22.98 143.66-19.45Q142.49-20.35 140.87-20.98 139.26-21.6 137.09-21.6L137.09-21.6Q133.59-21.6 131.87-19.66 130.16-17.73 130.16-14.03L130.16-14.03 130.16-10.43Q130.16-6.8 131.87-4.85 133.59-2.9 137.09-2.9L137.09-2.9Q139.34-2.9 140.97-3.53 142.61-4.15 143.89-5.05L143.89-5.05 143.51-1.48Q142.41-0.73 140.64-0.09 138.86 0.55 136.49 0.55ZM152.63-14.93L152.63-14.93 151.71-18.05 152.71-18.1Q153.51-21.2 155.46-22.99 157.41-24.78 160.63-24.78L160.63-24.78Q161.43-24.78 162.07-24.65 162.71-24.53 163.21-24.35L163.21-24.35 163.46-20.43Q162.83-20.63 162.07-20.75 161.31-20.88 160.38-20.88L160.38-20.88Q157.63-20.88 155.6-19.35 153.56-17.82 152.63-14.93ZM152.83 0L148.78 0 148.78-24.4 152.73-24.4 152.53-17.2 152.83-16.9 152.83 0ZM175.63-33.8L175.63-33.8Q177.51-33.8 178.99-33.46 180.48-33.13 181.73-32.63L181.73-32.63 182.13-29.45Q180.91-29.9 179.67-30.16 178.43-30.43 176.88-30.43L176.88-30.43Q175.01-30.43 173.87-29.94 172.73-29.45 172.24-28.56 171.76-27.68 171.76-26.43L171.76-26.43 171.76-26.3Q171.76-25.43 171.98-24.64 172.21-23.85 172.48-23.2L172.48-23.2 169.76-23.1 169.76-23.6Q168.98-24.2 168.39-25.28 167.81-26.35 167.81-27.78L167.81-27.78 167.81-27.9Q167.81-30.58 169.71-32.19 171.61-33.8 175.63-33.8ZM172.66 0L168.63 0 168.63-22.23 172.66-22.23 172.66 0ZM181.66-20.25L164.61-20.25 164.61-23.48 170.18-23.45 171.83-23.48 182.03-23.48 181.66-20.25Z" fill="#556970" data-fill-palette-color="primary"></path></g></svg></g></svg></g></svg></g></svg></g><g transform="matrix(1,0,0,1,413.33794864177383,0)"><svg viewBox="0 0 194.81314592922382 104.30710882483372" height="104.30710882483372" width="194.81314592922382"><g><svg xmlns="http://www.w3.org/2000/svg" xmlns:xlink="http://www.w3.org/1999/xlink" version="1.1" x="0" y="0" viewBox="0.6896103727003051 23.599 98.62188968419832 52.80426087640771" enable-background="new 0 0 100 100" xml:space="preserve" height="104.30710882483372" width="194.81314592922382" class="icon-icon-0" data-fill-palette-color="accent" id="icon-0"><g fill="#ff4136" data-fill-palette-color="accent"><path d="M97.066 49.294H84.667C83.748 49.294 82.922 49.854 82.582 50.706L81.041 54.563 72.499 33.185A2.243 2.243 0 0 0 68.33 33.185L61.894 49.294H53.06C55.074 43.669 55.104 37.549 53.018 32.66 51.208 28.42 48.037 25.536 43.849 24.32 42.2 23.842 40.584 23.599 39.045 23.599 33.326 23.599 29.691 26.836 27.635 29.587 25.578 26.836 21.944 23.599 16.224 23.599 14.685 23.599 13.069 23.842 11.42 24.321 7.232 25.536 4.062 28.421 2.252 32.66-0.249 38.521 0.281 46.153 3.638 52.579 9.163 63.151 25.598 75.44 26.295 75.959A2.24 2.24 0 0 0 28.973 75.959C29.644 75.46 44.882 64.064 50.955 53.784H63.415C64.333 53.784 65.159 53.224 65.5 52.372L70.415 40.069 78.957 61.448A2.245 2.245 0 0 0 83.127 61.448L86.188 53.784H97.067A2.245 2.245 0 0 0 97.066 49.294M27.634 71.325C23.635 68.192 11.806 58.516 7.617 50.5 4.91 45.316 4.425 39.006 6.381 34.422 7.262 32.358 9.069 29.678 12.672 28.631 13.914 28.271 15.109 28.088 16.224 28.088 22.353 28.088 25.085 33.743 25.571 34.877A2.247 2.247 0 0 0 29.699 34.877C30.184 33.743 32.916 28.088 39.045 28.088 40.16 28.088 41.355 28.271 42.596 28.631 46.2 29.678 48.007 32.358 48.887 34.422 50.845 39.005 50.359 45.316 47.652 50.499 43.462 58.516 31.633 68.192 27.634 71.325" fill="#ff4136" data-fill-palette-color="accent"></path></g></svg></g></svg></g></svg></g><defs></defs></svg><rect width="395.5199999999999" height="67.83766082259663" fill="none" stroke="none" visibility="hidden"></rect></g></svg></g></svg>